PathFileType	4	(X/Y/Z)	/Users/niels/Desktop/University/Third Semester/Perception and Action/Exam/Gymnastics Motion Tracking/Code for Gym Tracking/Analyzed Data/kraft_good_id2_1_Sports2D/kraft_good_id2_1_Sports2D_px_person00.trc
DataRate	CameraRate	NumFrames	NumMarkers	Units	OrigDataRate	OrigDataStartFrame	OrigNumFrames
143.44186046511626	143.44186046511626	7	22	m	143.44186046511626	225	258
Frame#	Time	Hip			RHip			RKnee			RAnkle			RBigToe			RSmallToe			RHeel			LHip			LKnee			LAnkle			LBigToe			LSmallToe			LHeel			Neck			Head			Nose			RShoulder			RElbow			RWrist			LShoulder			LElbow			LWrist		
		X1	Y1	Z1	X2	Y2	Z2	X3	Y3	Z3	X4	Y4	Z4	X5	Y5	Z5	X6	Y6	Z6	X7	Y7	Z7	X8	Y8	Z8	X9	Y9	Z9	X10	Y10	Z10	X11	Y11	Z11	X12	Y12	Z12	X13	Y13	Z13	X14	Y14	Z14	X15	Y15	Z15	X16	Y16	Z16	X17	Y17	Z17	X18	Y18	Z18	X19	Y19	Z19	X20	Y20	Z20	X21	Y21	Z21	X22	Y22	Z22
225	1.568579766536965	1.0361857255393225	-0.4587708228334724	0.0	1.0435867562246737	-0.4587583530941202	0.0	1.0668383674939192	-0.5426004461033053	0.0	1.0702360934602992	-0.6211661305482529	0.0	1.0924677765226536	-0.6177661442871187	0.0	1.0901850149146968	-0.6224931349296255	0.0	1.0662416016369827	-0.62922475420253	0.0	1.0280399384468328	-0.4582659474700377	0.0	1.0550616998776154	-0.542116317547051	0.0	1.061336090004458	-0.6127468810667387	0.0	1.0840444828959932	-0.6029682235712008	0.0	1.0705035493489385	-0.6102163765937064	0.0	1.0527950690834167	-0.6208372014448899	0.0	0.998084977669472	-0.35513865689149093	0.0	0.9891544929886926	-0.3022774814885738	0.0	1.006155254907004	-0.3219347040747994	0.0	1.0100395452331568	-0.35675296232649967	0.0	1.0150305615626496	-0.30145822166359787	0.0	1.0109394771509204	-0.2493415483188392	0.0	0.986985599727918	-0.35881182196759065	0.0	0.9838092411802126	-0.3081264732488931	0.0	0.9726184270502956	-0.260386332421342	0.0
226	1.5755512321660183	1.038317936239746	-0.45740254237032696	0.0	1.046036253377164	-0.45726930844183467	0.0	1.0680850231718104	-0.5413433128745408	0.0	1.0704522833373966	-0.6198909109859687	0.0	1.0926255761838581	-0.6167000558233706	0.0	1.0903451763524863	-0.6214637786052258	0.0	1.066268929082813	-0.6279421080750354	0.0	1.0297621148014489	-0.45681616180128926	0.0	1.0557960243202051	-0.5408620435698587	0.0	1.0615701975326746	-0.6113717695306984	0.0	1.0843588708117775	-0.6019674838677456	0.0	1.0707717823354985	-0.6089198551683281	0.0	1.0530597580581356	-0.6196852199030147	0.0	1.0019930854159995	-0.35324775043042533	0.0	0.9943155292923264	-0.3002783883915617	0.0	1.0108351977198866	-0.3202714945614332	0.0	1.0144971973306787	-0.3546537909918039	0.0	1.0209646203527907	-0.2993224603481577	0.0	1.0183213105328432	-0.24702254283668254	0.0	0.9902969753341475	-0.3569736628027266	0.0	0.9881658334919879	-0.3065629406867566	0.0	0.9779718962770073	-0.25844595885963156	0.0
227	1.5825226977950715	1.0403796866502806	-0.45579354498623964	0.0	1.0484238412776483	-0.4555558890115882	0.0	1.0693436162172592	-0.5398395029122538	0.0	1.0706444511244255	-0.6183719503473611	0.0	1.0927309138759524	-0.6154775348077222	0.0	1.0904529961814289	-0.6202688862891282	0.0	1.0662803795649467	-0.6264358726872968	0.0	1.031440268713604	-0.4551379717513583	0.0	1.0565142661815292	-0.5393496198677764	0.0	1.0618005448712253	-0.6097840069359642	0.0	1.0846640978556379	-0.6008465817796383	0.0	1.0710701066732364	-0.6074853042744975	0.0	1.0533415415455392	-0.618331267386492	0.0	1.005804370609591	-0.35118751584623553	0.0	0.9993031441703811	-0.2981657794243645	0.0	1.0153844406702022	-0.31845899345997436	0.0	1.0188429897042957	-0.3524083116311264	0.0	1.0267439146225281	-0.29707744722002244	0.0	1.025504864012263	-0.2446597188945962	0.0	0.9935323597186109	-0.35496137127861666	0.0	0.9923965488181321	-0.3048666113249594	0.0	0.983159051540475	-0.25642769959773815	0.0
228	1.5894941634241246	1.0423744487487778	-0.45395692587063813	0.0	1.050749905046368	-0.45363185758275465	0.0	1.070621643591445	-0.5381036913824604	0.0	1.0708164018912143	-0.6166260753030123	0.0	1.092785685564	-0.6141143183787099	0.0	1.0905111656587079	-0.6189242866924819	0.0	1.066278657297114	-0.624721733699547	0.0	1.0330780907910024	-0.45324455466497465	0.0	1.0572193763459488	-0.5375958385374765	0.0	1.0620269180588717	-0.6080029642537822	0.0	1.084956994357013	-0.5996188483614872	0.0	1.0713931853852638	-0.6059310692188529	0.0	1.0536382130364113	-0.6167912409660101	0.0	1.0095232771326323	-0.3489661179045661	0.0	1.0041232351317062	-0.295943233732841	0.0	1.0198074244877604	-0.3165022503871034	0.0	1.023075785300989	-0.35002575156277715	0.0	1.0323720465027943	-0.2947308383860355	0.0	1.0324941823463227	-0.24225479819767426	0.0	0.9966981530884363	-0.35278401223545935	0.0	0.996507728246888	-0.30303919956822695	0.0	0.9881874379580337	-0.2543326996814595	0.0
229	1.5964656290531778	1.044306216636033	-0.45190718164490556	0.0	1.0530154800614075	-0.45151221166130273	0.0	1.0719261098282291	-0.5361512999317521	0.0	1.0709724262038411	-0.6146698879677577	0.0	1.092793329540131	-0.6126251962939407	0.0	1.0905241726205346	-0.6174449663022699	0.0	1.0662667197293583	-0.6228147583500412	0.0	1.0346795300092957	-0.45115044669614046	0.0	1.0579146373452695	-0.5356184069530594	0.0	1.0622497438451686	-0.6060473959933008	0.0	1.0852351591926837	-0.5982975916920499	0.0	1.0717365532335472	-0.6042748455776589	0.0	1.053948105824123	-0.6150807520742384	0.0	1.013154159787164	-0.346593758338271	0.0	1.008782583409852	-0.2936161331581921	0.0	1.0241087658878611	-0.31440830647437196	0.0	1.0271953309611197	-0.34751701104393434	0.0	1.0378533526046787	-0.29229194717088847	0.0	1.0392946330928754	-0.23981121541887626	0.0	0.9998004962004545	-0.35045262458086684	0.0	1.000506033229198	-0.30108414416336304	0.0	0.9930651317203039	-0.2521637601237405	0.0
230	1.603437094682231	1.0461793677705578	-0.4496600581964798	0.0	1.0552221390768977	-0.4492130060139603	0.0	1.073263359177739	-0.5339984574113928	0.0	1.0711173301607395	-0.612519802367173	0.0	1.09275853062766	-0.6110241776028691	0.0	1.0904981888508178	-0.6158451306394735	0.0	1.066247888360058	-0.6207295882780096	0.0	1.0362487483198004	-0.44887135637069864	0.0	1.0586036267435126	-0.5334358906943729	0.0	1.062470216877802	-0.603935523477382	0.0	1.0854972454484237	-0.5968961838414247	0.0	1.0720968708285854	-0.6025336626996693	0.0	1.054270265040526	-0.613215289520061	0.0	1.016701102635075	-0.34408247020086874	0.0	1.0132883098675525	-0.29119143941589914	0.0	1.0282929505621135	-0.31218591680893837	0.0	1.0312020274826272	-0.3448944809585816	0.0	1.0431925725161513	-0.2897717416713979	0.0	1.045912575476677	-0.23733404571045194	0.0	1.0028450396145858	-0.3479799456107246	0.0	1.0043981499569417	-0.2990065041705286	0.0	0.9978004518858871	-0.24992507336533218	0.0
231	1.610408560311284	1.0479985614185656	-0.447232334614675	0.0	1.057371868282674	-0.44675108319483264	0.0	1.0746390230381593	-0.5316618238331265	0.0	1.07125637583947	-0.6101919174113618	0.0	1.0926869248434872	-0.6093244739358983	0.0	1.0904408394651828	-0.6141381287108522	0.0	1.0662258952266377	-0.618480439883018	0.0	1.0377899402767368	-0.4464238876233021	0.0	1.0592901204841227	-0.5310675445368394	0.0	1.0626903390260305	-0.6016850204339977	0.0	1.0857432502591604	-0.5954280782882299	0.0	1.0724720317108605	-0.6007237738975666	0.0	1.0546046019363184	-0.6112101887834112	0.0	1.020167848993503	-0.3414457422357793	0.0	1.0176473456673214	-0.288677543901444	0.0	1.0323640502301166	-0.30984522882981175	0.0	1.0350967927343098	-0.3421716349545255	0.0	1.04839467005183	-0.2871827201314619	0.0	1.0523550362240315	-0.23482981267814967	0.0	1.0058367964053934	-0.3453800826949509	0.0	1.008190476780094	-0.2968128640747847	0.0	1.0024016979223884	-0.24762196294416558	0.0
